HIERARCHY
ROOT Hips
{
	OFFSET 0.000000 0.000000 0.000000
	CHANNELS 6 Xposition Yposition Zposition Xrotation Yrotation Zrotation
	JOINT LeftUpLeg_virtual
	{
		OFFSET 0.000000 0.000000 0.000000
		CHANNELS 3 Xrotation Yrotation Zrotation
		JOINT LeftUpLeg
		{
			OFFSET 11.394100 -6.187798 -0.413800
			CHANNELS 3 Xrotation Yrotation Zrotation
			JOINT LeftLeg
			{
				OFFSET 0.430247 -32.302673 3.732800
				CHANNELS 3 Xrotation Yrotation Zrotation
				JOINT LeftFoot
				{
					OFFSET -0.430247 -48.264931 -6.423300
					CHANNELS 3 Xrotation Yrotation Zrotation
					JOINT LeftToeBase
					{
						OFFSET 4.230900 -16.068199 23.438400
						CHANNELS 3 Xrotation Yrotation Zrotation
						JOINT LeftToe_End
						{
							OFFSET 4.510700 0.695400 19.974600
							CHANNELS 3 Xrotation Yrotation Zrotation
							End Site
							{
								OFFSET 0 0 0
							}
						}
					}
				}
			}
		}
	}
	JOINT RightUpLeg_virtual
	{
		OFFSET 0.000000 0.000000 0.000000
		CHANNELS 3 Xrotation Yrotation Zrotation
		JOINT RightUpLeg
		{
			OFFSET -11.333700 -6.187798 -0.413800
			CHANNELS 3 Xrotation Yrotation Zrotation
			JOINT RightLeg
			{
				OFFSET -0.430392 -32.302628 3.733000
				CHANNELS 3 Xrotation Yrotation Zrotation
				JOINT RightFoot
				{
					OFFSET 0.430392 -48.264973 -6.423500
					CHANNELS 3 Xrotation Yrotation Zrotation
					JOINT RightToeBase
					{
						OFFSET -4.230900 -16.068199 23.438400
						CHANNELS 3 Xrotation Yrotation Zrotation
						JOINT RightToe_End
						{
							OFFSET -4.510700 0.695400 19.974600
							CHANNELS 3 Xrotation Yrotation Zrotation
							End Site
							{
								OFFSET 0 0 0
							}
						}
					}
				}
			}
		}
	}
	JOINT Spine_virtual
	{
		OFFSET 0.000000 0.000000 0.000000
		CHANNELS 3 Xrotation Yrotation Zrotation
		JOINT Spine
		{
			OFFSET -0.002400 12.777504 0.315300
			CHANNELS 3 Xrotation Yrotation Zrotation
			JOINT Spine1
			{
				OFFSET -0.002067 5.816869 0.032633
				CHANNELS 3 Xrotation Yrotation Zrotation
				JOINT Spine1_split
				{
					OFFSET -0.002067 5.816869 0.032633
					CHANNELS 3 Xrotation Yrotation Zrotation
					JOINT Spine2
					{
						OFFSET -0.002067 5.816869 0.032633
						CHANNELS 3 Xrotation Yrotation Zrotation
						JOINT Neck_virtual
						{
							OFFSET 0.000000 0.000000 0.000000
							CHANNELS 3 Xrotation Yrotation Zrotation
							JOINT Neck
							{
								OFFSET -0.003700 21.199493 -0.826900
								CHANNELS 3 Xrotation Yrotation Zrotation
								JOINT Head
								{
									OFFSET 0.000000 20.442200 4.834800
									CHANNELS 3 Xrotation Yrotation Zrotation
									JOINT HeadTop_End
									{
										OFFSET 0.000000 34.668396 4.968400
										CHANNELS 3 Xrotation Yrotation Zrotation
										End Site
										{
											OFFSET 0 0 0
										}
									}
								}
							}
						}
						JOINT LeftShoulder_virtual
						{
							OFFSET 0.000000 0.000000 0.000000
							CHANNELS 3 Xrotation Yrotation Zrotation
							JOINT LeftShoulder
							{
								OFFSET 3.288150 8.794197 -1.372250
								CHANNELS 3 Xrotation Yrotation Zrotation
								JOINT LeftShoulder_split
								{
									OFFSET 3.288150 8.794197 -1.372250
									CHANNELS 3 Xrotation Yrotation Zrotation
									JOINT LeftArm
									{
										OFFSET 11.953299 -2.279007 -0.146200
										CHANNELS 3 Xrotation Yrotation Zrotation
										JOINT LeftForeArm
										{
											OFFSET 18.448900 0.000000 0.000000
											CHANNELS 3 Xrotation Yrotation Zrotation
											JOINT LeftHand
											{
												OFFSET 29.527798 0.000000 0.000000
												CHANNELS 3 Xrotation Yrotation Zrotation
												End Site
												{
													OFFSET 0 0 0
												}
											}
										}
									}
								}
							}
						}
						JOINT RightShoulder_virtual
						{
							OFFSET 0.000000 0.000000 0.000000
							CHANNELS 3 Xrotation Yrotation Zrotation
							JOINT RightShoulder
							{
								OFFSET -3.249400 8.794197 -1.372250
								CHANNELS 3 Xrotation Yrotation Zrotation
								JOINT RightShoulder_split
								{
									OFFSET -3.249400 8.794197 -1.372250
									CHANNELS 3 Xrotation Yrotation Zrotation
									JOINT RightArm
									{
										OFFSET -11.953299 -2.279007 -0.146200
										CHANNELS 3 Xrotation Yrotation Zrotation
										JOINT RightForeArm
										{
											OFFSET -18.448900 0.000000 0.000000
											CHANNELS 3 Xrotation Yrotation Zrotation
											JOINT RightHand
											{
												OFFSET -29.527802 0.000000 0.000000
												CHANNELS 3 Xrotation Yrotation Zrotation
												End Site
												{
													OFFSET 0 0 0
												}
											}
										}
									}
								}
							}
						}
					}
				}
			}
		}
	}
}
MOTION
Frames: 8
Frame Time: 0.03333333
1.204358 96.970924 6.586952 0.000000 0.000000 0.000000 -12.843946 -52.494399 -8.054711 -23.831631 0.345875 12.764530 26.246709 -8.514754 0.666862 6.702895 -3.157072 -3.067897 -2.217822 -3.539825 0.048974 0.000000 0.000000 0.000000 -7.681600 -49.489795 -5.826651 -6.055861 -7.204514 -14.477756 35.765995 4.762081 -5.249902 -11.129376 -9.284880 26.668400 -6.070939 -0.719846 0.019295 0.000000 0.000000 0.000000 -13.252865 -45.701137 -8.523910 5.547941 5.467429 -1.338948 10.796787 10.070285 -3.354904 1.097709 -2.157214 0.603484 0.000000 0.000000 0.000000 10.950050 9.531093 -4.145403 -6.930770 -3.879344 2.099860 -4.649463 22.344532 0.585012 0.000000 0.000000 0.000000 10.163095 9.310761 -3.174816 2.474994 1.554026 -3.125428 -5.416647 2.911379 -6.002763 -15.981980 -3.242974 -56.298459 2.144934 -53.303343 1.161167 0.000000 0.000000 0.000000 10.020712 9.872183 -2.892509 2.845320 8.740836 9.475294 -3.202040 4.011174 -0.841906 -1.935766 -29.543215 65.792214 -8.220029 50.050270 9.072767 0.000000 0.000000 0.000000 
1.789859 97.140976 5.125244 0.000000 0.000000 0.000000 -11.720285 -52.388497 -6.929998 -23.414618 0.569687 12.877817 25.186399 -9.226823 0.733451 4.976402 -3.765978 -1.875294 -1.385232 -3.231236 -0.878657 0.000000 0.000000 0.000000 -7.815571 -49.373136 -5.328773 -5.937054 -7.045254 -15.329724 34.913974 4.566437 -5.234295 -12.089715 -8.713371 23.757806 -2.783856 -1.201103 1.156070 0.000000 0.000000 0.000000 -12.502098 -45.826584 -8.041437 5.278295 5.339130 -1.150537 11.071955 10.082820 -3.341141 1.474480 -1.732080 0.382323 0.000000 0.000000 0.000000 11.134931 9.518299 -4.089749 -6.901108 -3.612329 2.122263 -4.427067 22.925317 0.473974 0.000000 0.000000 0.000000 10.707614 9.283116 -3.211948 2.510501 1.407202 -3.434601 -4.965749 2.893012 -5.821844 -14.202906 -2.068814 -57.340306 1.980225 -51.747767 1.207294 0.000000 0.000000 0.000000 10.598645 9.923258 -2.978804 2.815372 9.168387 10.189561 -3.871897 3.651382 -0.214186 -0.975683 -29.772139 65.798839 -7.978646 49.108794 8.975710 0.000000 0.000000 0.000000 
2.405521 97.007690 2.735573 0.000000 0.000000 0.000000 -10.295917 -51.489303 -5.730851 -23.675855 0.944059 13.766524 22.739752 -9.858881 0.451708 4.336695 -4.312023 -3.047564 -0.469652 -2.832991 -1.307092 0.000000 0.000000 0.000000 -7.481313 -48.239253 -4.682425 -7.507992 -7.177862 -16.226552 36.044513 4.898307 -4.750859 -14.026602 -7.674900 18.932137 -0.539104 -1.367785 1.635885 0.000000 0.000000 0.000000 -11.361599 -44.890561 -7.234139 5.385947 4.955764 -1.125071 11.667585 9.991532 -3.326382 2.044215 -0.951497 0.331208 0.000000 0.000000 0.000000 11.637300 9.394329 -4.031740 -7.993150 -3.186340 2.263090 -4.225281 22.920879 0.266183 0.000000 0.000000 0.000000 11.502775 9.149983 -3.268967 2.468540 1.457494 -3.222341 -4.641013 2.108665 -4.500366 -13.202739 -0.778526 -59.813121 3.037099 -50.477970 2.600888 0.000000 0.000000 0.000000 11.518036 9.817436 -3.176488 2.920578 9.570333 11.036286 -4.494566 3.144029 0.150478 -1.193219 -27.709164 64.565519 -7.459576 48.551597 8.295471 0.000000 0.000000 0.000000 
2.908943 96.560081 -0.569073 0.000000 0.000000 0.000000 -8.570916 -50.080436 -4.621975 -25.253354 1.202045 15.087729 19.939390 -10.015411 -0.000428 5.779439 -4.612195 -5.909325 0.197104 -2.386714 -1.377711 0.000000 0.000000 0.000000 -6.406233 -46.257132 -3.854901 -11.058368 -7.743183 -16.958108 39.283123 5.846918 -3.725093 -15.048138 -5.768772 13.434573 -1.545274 -1.527975 1.635221 0.000000 0.000000 0.000000 -9.532577 -43.144563 -6.083101 5.780355 4.330077 -1.227984 12.533769 9.744335 -3.305699 2.162073 -0.343877 0.704206 0.000000 0.000000 0.000000 12.497191 9.127335 -3.978250 -10.091370 -2.650313 2.545585 -4.213454 22.326049 0.066146 0.000000 0.000000 0.000000 12.562954 8.871695 -3.337586 2.386003 1.751304 -2.484309 -4.427469 1.006411 -2.630456 -14.085160 -0.061177 -62.845834 4.380030 -48.809584 4.504394 0.000000 0.000000 0.000000 12.710836 9.524559 -3.417745 3.135826 9.929312 11.635671 -4.989572 2.478263 0.134357 -2.971254 -23.812693 62.181216 -6.887551 49.067533 7.154774 0.000000 0.000000 0.000000 
3.295127 95.594612 -4.368896 0.000000 0.000000 0.000000 -6.280570 -48.204173 -3.503154 -28.717404 1.579289 16.593540 17.677648 -9.213011 -0.413326 9.146862 -4.799556 -8.670670 0.418352 -2.008849 -1.402691 0.000000 0.000000 0.000000 -4.709053 -43.985264 -3.020181 -16.823982 -9.016670 -17.293735 43.779262 7.618897 -2.275048 -13.835717 -2.914345 8.843101 -6.608105 -1.801261 1.111162 0.000000 0.000000 0.000000 -7.014617 -40.722739 -4.759928 6.315202 3.557065 -1.391076 13.657773 9.287982 -3.277690 2.307863 0.225934 1.405884 0.000000 0.000000 0.000000 13.696294 8.667410 -3.944435 -13.112842 -2.145256 2.963501 -4.730859 20.968705 0.051409 0.000000 0.000000 0.000000 13.866820 8.397123 -3.437284 2.297896 2.132820 -1.380501 -4.177589 -0.135219 -0.964206 -16.553203 -0.293639 -65.457425 4.917683 -46.580722 5.917618 0.000000 0.000000 0.000000 14.122743 9.019556 -3.643606 3.424528 10.198662 11.672401 -5.473662 1.987914 0.058468 -5.736146 -18.707202 59.215070 -6.476786 51.316120 5.651637 0.000000 0.000000 0.000000 
3.529464 93.998978 -7.840561 0.000000 0.000000 0.000000 -3.279040 -45.760126 -2.345754 -34.522819 1.922462 17.788552 16.491154 -7.697593 -0.629729 13.766280 -5.392582 -10.290725 -0.527988 -1.747434 -1.258780 0.000000 0.000000 0.000000 -2.285926 -41.298787 -2.148731 -24.515658 -11.107656 -17.103750 48.618519 10.248038 -0.638241 -11.124812 0.694474 5.246912 -13.556738 -2.127233 0.229873 0.000000 0.000000 0.000000 -3.874736 -37.871859 -3.518615 6.970754 2.711472 -1.509065 15.080207 8.608040 -3.286568 2.307839 0.654998 1.657006 0.000000 0.000000 0.000000 15.250757 8.029929 -3.948856 -16.770604 -1.872395 3.465580 -5.909002 19.072263 0.313385 0.000000 0.000000 0.000000 15.444502 7.753154 -3.601909 2.217915 2.420511 -0.159535 -3.677853 -1.180048 0.135257 -19.792807 -1.543599 -66.777339 4.105871 -44.553669 6.307751 0.000000 0.000000 0.000000 15.745415 8.330551 -3.837876 3.754320 10.382957 11.023379 -5.862016 1.862387 -0.197798 -8.781576 -13.711977 56.280803 -6.170315 55.313884 3.725653 0.000000 0.000000 0.000000 
3.620550 91.792763 -11.082573 0.000000 0.000000 0.000000 0.525949 -42.481270 -1.074406 -42.875003 1.939105 18.692995 17.190512 -6.619454 -0.583007 18.740362 -7.142558 -11.195083 -2.223427 -1.581045 -0.993279 0.000000 0.000000 0.000000 1.100020 -38.067735 -1.121334 -33.538797 -14.168351 -16.389679 53.523794 13.205459 1.041620 -8.855501 4.574113 1.359673 -18.841085 -2.243525 -0.700930 0.000000 0.000000 0.000000 0.026805 -35.115300 -2.342118 7.717125 1.972051 -1.525119 16.801169 7.747996 -3.379869 2.155452 0.819529 1.752912 0.000000 0.000000 0.000000 17.073975 7.240940 -4.008541 -20.813106 -1.881318 3.905916 -7.803171 16.702555 0.915860 0.000000 0.000000 0.000000 17.254801 6.969208 -3.878461 2.191026 2.423065 0.881181 -2.716390 -2.308579 0.724100 -22.900376 -3.919958 -66.416882 2.025814 -43.956055 5.639647 0.000000 0.000000 0.000000 17.586147 7.531327 -4.019858 4.115573 10.666410 9.897010 -6.062132 2.462742 -0.568955 -11.617511 -9.975530 53.997659 -5.667015 60.588969 1.212924 0.000000 0.000000 0.000000 
3.530687 88.892807 -13.972332 0.000000 0.000000 0.000000 4.937335 -38.046957 0.183678 -53.321757 1.852344 19.047214 19.982456 -5.872816 -0.477629 21.673153 -9.803526 -10.697066 -3.741392 -1.563218 -0.733808 0.000000 0.000000 0.000000 5.070657 -34.184438 -0.069230 -43.512734 -18.007010 -15.529723 58.636805 15.914380 2.721438 -8.291401 8.239445 -3.358684 -20.553347 -1.974386 -1.521231 0.000000 0.000000 0.000000 4.348739 -32.428700 -1.293040 8.536256 1.475765 -1.453260 18.809074 6.771871 -3.591797 1.817259 0.826636 1.538657 0.000000 0.000000 0.000000 19.091396 6.357853 -4.151860 -24.925010 -2.235961 4.133417 -10.323304 13.805065 1.738866 0.000000 0.000000 0.000000 19.209965 6.119970 -4.272365 2.203218 2.143066 1.620430 -1.805559 -3.233278 0.595148 -24.799729 -7.192708 -64.016747 -0.777585 -46.384464 4.040246 0.000000 0.000000 0.000000 19.623986 6.697055 -4.231093 4.470066 11.245126 8.430567 -5.963067 3.435177 -0.911537 -13.768072 -8.093083 52.466812 -4.477785 66.584133 -2.164411 0.000000 0.000000 0.000000 
